# xmcd
#
# Track frame offsets:
# 150
# 13792
# 31922
# 43822
# 53375
# 69480
#
# Disc length: 1126 seconds
#
#
# Revision: 0
# Processed by: cddbd v1.5.1PL2 Copyright (c) Steve Scherf et al.
# Submitted via: Nero 7, 0, 5, 4 
#
DISCID=44046406
DTITLE=Verschiedene - Comstock Records
DYEAR=2003
DGENRE=country
TTITLE0=It's The Inside That Counts (United States)
TTITLE1=Wally-Wally What's His Name (Canada)
TTITLE2=I'm A Drinkin' Man (United States)
TTITLE3=King Of The Whole Wide World (United States)
TTITLE4=P.I. Redneck (United States)
TTITLE5=How Do You Sleep At Night (United States)
EXTD=
EXTT0=
EXTT1=
EXTT2=
EXTT3=
EXTT4=
EXTT5=
PLAYORDER=
